<?xml version="1.0" encoding="UTF-8"?><svg id="Layer_5" xmlns="http://www.w3.org/2000/svg" viewBox="0 0 980.39 679.49"><path d="M761.56,178.3c-.76-.17-1.24-.62-1.4-1.4h1.4c-.08.45.11.96,0,1.4Z" fill="#fce305"/><path d="M906.83,415.78c-.46.47-.97.9-1.4,1.4-.45.53-2.8,1.29-2.77,2.1.06,1.41,3.73,1.72,4.16,2.1.29.25-.9,4.24,4.19,2.79-.56,5.71,3.28,5.37,4.19,6.98.31.55,1.24,2.37,1.4,2.79,3.08,8.36,2.21,18.04,2.79,26.54l-1.4,2.79c-.42.57-2.47,11.92-2.79,13.97-.5.44-.94.92-1.4,1.4-2.1,2.18-3.51,4.77-5.59,6.98-1.27,1.35-1.64.93-4.19,4.19-.58.74-2.37.98-2.79,2.79-.07.29-.1,1.14,0,1.4-4.85,2.16-10.44,8.06-12.57,12.57-.2-.11-1.14-.06-1.4,0-2.18.55-5.7,4.93-6.98,6.98-.98,1.57-2.09,3.85-2.79,5.59l-2.79,1.4c-1-.08-2.26.52-2.79,1.4-2.5-.44-3.29.27-2.79,2.79-.84.19-2.05-.23-2.79,0-.48.15-.96,1.22-1.4,1.4-2.14.83-4.78,2.52-5.59,2.79-4.64,1.55-15.38,5.07-19.56,5.59-4.71.58-13.27.38-18.16,0-.92-.07-1.89.11-2.79,0-1.77-.21-3.8-.93-5.59-1.4-4.81-1.26-16.08-8.04-17.7-8.2-3.38-.34-3.69,4.28-5.63,5.49-2.37,1.48-4.95.99-7.41,1.31-1.32.17-2.82-.07-4.19,0h-1.4c-5.56.18-11.19-.07-16.76,0-1.4.02-2.79-.01-4.19,0-4.18.04-8.39-.02-12.57,0-.93,0-1.86,0-2.79,0-26.05.13-52.17,0-78.23,0,.66-2.75-.69-3.73-3.5-2.84-1.12.36-.48,2.6-.69,2.84-.26.29-2.27.42-2.79,1.4-1.03-.32-2.91.22-4.19,0-20.15-3.4-46-1.27-67.05-1.4-1.4,0-2.79,0-4.19,0-38.37-.21-77.17.05-115.19-.06-10.3-.03-77.05,2.31-80.38.06-.12-.08.45-2.74-.78-2.88-2.07-.25-5.3,2.43-8.99,2.88-16.34,2.03-44.13.47-61.46,0-2.9-.08-5.79.36-8.38-1.4.09-3.94-3.33-1.99-2.79-5.59.26-.45.19-8.96,0-10.47-3-3-2.82,1.62-4.13,2.79-5.29,4.71-10.99,9.1-15.44,14.66-7.43,2.6-13.57.03-20.2-.06-17.65-.23-38.09,1.57-55.24.06-9.42-.83-8.17-5.79-12.57-6.98-.13-5.1.19-10.27,0-15.37-.11-3.12-1.39-7.78-1.4-8.38-.02-.93-.01-1.86,0-2.79,0-.37,2.78-4.42,1.4-6.98.47-.19,1.47.38,2.47-.3s9.82-11.95,11.51-14.05c1.1-1.36,2.78-.87,2.78-1.02v-33.53c-2.62,1.07-16.03,1.03-16.63,1.6-.38.36.18,2.53-.55,3.48-5.69,7.38-34.52,35.98-41.93,39.87-15.16,7.95-27.15,6.8-42.56,1.55-11.5-3.92-18.6-10.53-32.3-6.12l-18.29-41.21c-1.38-7.32,11.03-12.34,13.26-17.35,2.59-5.83-2.23-10.67,6.41-15.94,12.86-7.84,39.68-9.22,54.1-5.42,5.07,1.34,15.4,7.27,19.29,7.39,3.48.11,4.79-2.36,7.5-3.54,1.64-.72,5.24-.39,5.55-.69.99-.98-.86-22.69.69-27.94,2.32-7.85,15.59-13.68,18.2-19.52,2.06-4.62-1.81-11.43,4.22-12.54,3.38-.62,10.25-1.24,13.9-1.47,45.05-2.78,92.97,2.17,138.32.09,7.98,1.54,6.3,13.31,6.33,19.53,8.17-2.54,3.77-12.98,7.63-16.8,5.75-5.67,84.29-1.34,97.79-2.73,7.34,1.41,9.95,23.92,13.32,30.7.88.68,15.58-14.37,16.03-15.38,1.6-3.64-.44-12.14,4.44-13.72,1.81-.59,12.22-1.5,15.08-1.68,16.59-1.02,51.43-2,67.03.19,1.44.2,3.64.6,4.64,1.6,2.4,2.4,2.34,28.97,1.76,33.92-.99,8.46-9.81,11.7-9.81,12.54v39.81l27.95-1.39c-.43-2.45.63-13.23-.08-13.91-.23-.22-4.01.07-6.31-1.35-9.3-5.74-8-31.76-1.99-39.91,3.13-4.24,13.86-12.69,15.46-16.6,1.33-3.24,1.54-12.42,2.88-13.25.74-.45,14.69-1.5,17.21-1.65,47.45-2.72,97.55,2.26,145.3.09,8.1,2.26,6.36,9.89,6.34,16.73,14.34-17.72,50.37-24.17,71.84-20.87,12.75,1.96,12.28,4.06,27.97,4.04,8.96,0,33.51-1.59,40.27.36,2.28.65,4.75,3.67,5.15,6.03-1.8,10.47,3.06,50.84-1.26,57.34-.99,1.49-6.26,5.3-8.48,7.58ZM800.67,439.52c-2.17-1.45-30.96,1.09-36.32,0v48.89h34.92c.71,0,.84-12.6,2.09-13.96,28.24,31.44,99.83,20.45,94.3-30.05-3.17-29-44.3-34.69-65.22-43.73-9.07-3.92-20.49-13.02-8.12-21.22,13.07-8.66,36.49,4.53,34.22,20.95h34.22c3.34,0,.49-6.86.63-9.01.79-12.1.68-18.59.19-30.64-.06-1.54,3.24-10.63-.83-10.63h-30.73c-2.99,0-1.64,12.36-3.51,15.36-26.32-33.17-92.03-19.85-89.44,27.29.9,16.32,12.6,28.04,26.56,34.91,8.85,4.36,48.36,13.48,50.14,19.81,3.93,13.98-28.89,16.63-38.94,2.51-2.18-3.07-3.71-10.17-4.18-10.49ZM853.74,355.71c1.51-7.63-5.18-8.23-11.16-8.37l11.16,8.37ZM341.09,378.06c-.78-1.03,0-22.12,0-25.84,0-4.06-13.97-4.93-13.97-1.4v53.08c0,.15-1.95,2.1-2.1,2.1h-32.13c-.46,0-2.12-1.85-3.49-1.4v-23.75h-8.38v76.83h13.97v-19.56c0-.75,12.97,1.11,15.04-1.02l28.25-27.71c1.3.51,6.54,2.11,6.78,2.37,2.73,3.04-10.92,36.82-11.82,43.09-.33,2.33-.42,3.47,2.23,4.21l23.74-77.55c-8.75-1.05-4.07-8.16-7.66-13.22-1.95,1.39-2.79,3.76-4.42,5.39-.7.7-4.96,5.8-6.05,4.36ZM554.82,348.73v30.73c0,1.16-9.78.9-9.78,1.4v78.23c6.08.11,10.78-2.64,16.75,0v-4.19s-2.77,1.41-2.77,1.41c1.84-20.43-2.47-45.11-.12-65.01.35-2.98,8.34-5.71,9.6-10.02.71-2.43.94-27.65.34-30.22-.67-2.87-11.42-2.39-14.03-2.33ZM676.35,348.73h-4.19v30.73c0,.98-9.41,1.07-9.77,1.41-.61.58.41,14.12,0,16.75,1.03,1.39,17.26-14.98,19.53-16.08,1-3.86-5.57-1.49-5.57-2.08v-30.73ZM750.38,350.82c-1.18,3.78,0,22.17,0,27.94,0,3.01-9.38,1.79-11.8,2.17-7.22,1.13-17.43,15.16-24.62,18.7l-1.32,2.85,36.62,57.71,10.89.28c1.31-5.22-4.92-7.82-6.47-10.27-7.8-12.37-14.36-25.87-22.89-37.89,5.3-1.19,5.38-4.07,8.34-7.04,16.44-16.49,28.96-20.8,26.67-47.53-.18-2.14-.19-4.87-1.34-6.69-1.91-3.02-13.05-3.53-14.08-.23ZM897.06,350.82v51.69c0,.15-1.95,2.1-2.1,2.1h-35.62l25.02,13.39c19.1,14.36,21.35,42.35,6.18,60.49-18.53,22.17-63.15,25.1-84.99,5.77-2.84,1.12-1.59,9.75-4.19,9.75h-122.93c-4.83,0-4.61-31.25-1.79-33.24,1.22-.86,8.19-.7,8.1-2.41l-13.31-21.65c-8.22.29-11.75,19.47-8.99,22.3.42.43,7.58.28,9.37,1.8,3.05,2.59,2.93,33.19-1.75,33.19h-268.2c-.15,0-2.1-1.95-2.1-2.1v-32.83c0-.91,13.33-1.94,15.37-1.4v-4.18h-34.93v4.19c2.82-.64,12.57.07,12.57,3.5v30.73c0,.15-1.95,2.1-2.1,2.1h-69.15c-.63,0-2.01-10.79-1.41-12.57-3.52,1.45-3.67,7.45-8.37,6.98v-21.65c0-5.66-10.24-2.98-13.98-3.5-2.12,6.18,5.29,27.95-2.32,30.51l-77.8.03c-4.05-1.33-1.75-10.18-2.3-13.77-2.01,1.55-13.96,12.31-13.96,13.27v31.43h78.92c8.47-6.55,14.56-16.57,23.04-23.06,1.41-1.08,1.76-2.69,4.2-2.09v25.14h69.15c.97,0,5.01-8.98,8.37-8.4,1.4-.03-.96,10.08,5.53,8.46l266.21-.75c7.18-11.21,3.49-.41,9.03.7l122.24-.72c4.51-11.06,12.04-1.77,21.3,1.06,15.55,4.75,30.32,4.42,45.73-1.09,12.77-4.56,46.75-36.73,53.38-48.6,10.68-19.12,6.39-43.37-12.86-54.76,0-4.06,13.66-12.12,15.09-18.44,1.19-5.27,1.32-43.05.3-48.6-1.09-5.92-12.85-6.39-13.97-2.79ZM322.93,350.12h-132.01c-.15,0-2.1,1.95-2.1,2.1v49.59h29.33v-25.14h18.16v86.61h-16.76v25.14h74.04v-25.14h-16.76v-86.61h16.76v25.14h29.33v-51.69ZM434.68,350.12h-76.83v25.14c0,.35,5.85-.27,6.99,0l-.35,4.53-24.93,83.33c-1.12.96-13.83-.55-13.83.14v25.14h62.86v-25.14h-15.36c-.49-.44,2.86-11.87,3.46-12.6,1.57-1.88,39.04-2.24,41.29-.73,1.29.87,4.82,12.67,4.13,13.32h-18.16v26.55c1.5.52,3.07-1.4,3.49-1.4h76.13v-23.05c0-4.06-13.91.19-15.13-4.42l-33.76-110.82ZM494.75,457.68v-76.83c0-.55-9.57.66-10.98-1.6-1.62-2.6,1.33-9.4-.89-12.37-2.19,2.75-13.28,11.99-13.28,14.66v24.45l-17.44-54.5c-1.69-2.03-8.46-1.75-11.23-1.37-1.91.26-2.44-.78-2.02,2.03l33.31,104.72c7.53,1.76,14.95,2.46,22.52.8ZM550.62,350.12h-62.86v24.45c0,2.72,9.02,2.21,11.18,2.09l.02,85.82c-.26,1.8-11.2-.53-11.2,2.89v22.35c0,.7,2.3,2.3,3.48,2.14l108.28-1.44v-50.29h-33.53v25.14h-26.54v-86.61c0-.56,11.18.56,11.18,0v-26.54ZM667.96,350.12h-61.46l-.15,24.31c1.31,1.94,9.93.34,9.93.84v87.31c0,3.27-7.65,1.51-9.78.7v23.05c0,.51-2.62,1.45.72,3.49l57.39-.07c1.17.36,3.36-1.44,3.36-2.02v-22.35c0-3.55-9.54.09-11-2.28-.49-.79-.53-16.57-.14-18.64.95-5.02,11.66-9.73,14.63-14.68,1.97-.02,20.77,29.89,21.61,32.85,1.5,5.29-12.53-2.03-12.53,2.74v23.05l76.83,1.4v-24.45c0-3.35-10.93-.66-12.62-4.14l-37.71-58.82,1.34-4.19c8.32-3.68,19.52-19.33,26.69-22.2,3.29-1.31,11.12-.2,11.12-.75v-25.14h-65.65v25.14c1.59.68,14.21-1.85,12.56,2.08-.75,1.78-25.12,23.03-28.66,25.82-2.11,1.67-4.86,4.19-7.65,4.23v-30.03c0-3.4,11.18-1.5,11.18-2.1v-25.14ZM222.35,380.85v23.05c0,.15-1.95,2.1-2.1,2.1h-33.53c-.15,0-2.1-1.95-2.1-2.1v-37.02c-17.6,10.7-14.32,24.48-13.9,42.66.06,2.52-1.36,5.02-1.29,7.01.15,3.97,4.61,14.07,5.36,18.17,3.38,18.66-28.09,21.7-40.82,19.84-13.79-2.02-25.12-14.88-40.04-8.63-2.8,1.17-10.78,9.31-13.85,4.53-1.41-2.19-2.33-17.17-5.1-20.7-12.16,9.53-9.05,11.88-3.2,24.2,2.03,4.28,6.31,11.1,9.16,15.94.89,1.51,1.24,5.3,1.89,5.77,1,.71,8.42-.03,11.37.51,18.97,3.49,27.28,17.24,51.72,7.76,5.93-2.3,41.22-35.62,42.18-40.04.35-1.62-1.18-5.29-.68-5.76.68-.64,15.49-.56,18.62-1.64,2.81-.97,6.92-11.43,12.11-10.94v32.13h12.57v-76.83h-8.38ZM605.1,437.43c1.13,6.72-.82,15.99,0,23.05,3.35.22,6.67.48,6.99-3.49-2.11-9.24,2.77-73.52,0-76.14-.61-.58-6.4,1.32-9.13-1.35-3.19-3.12-1.15-9.07-2.75-12.6-2.54,4.63-11.28,9.44-12.65,13.89-1.09,3.54-1.33,23.66-.34,27.03,1.7,5.81,10.18,3.08,10.9,3.77.86.81-.87,16.85-.08,20.04.45,1.82,6.26,1.08,7.05,5.81ZM852.35,401.8c.35-12.83-9.29-20.27-21.67-19.65-4.54.23-10.85,1.65-8.9,7.58,1.11,3.37,28.8,13.84,30.57,12.07ZM762.26,435.33c7.21-2.23,25.64,1.65,34.22,0l-16.64-10.6c-10.99-8.74-18.21-21.03-16.9-35.5-17.12,13.43-20.06,45.81-2.79,60.07.38-3.19-1.36-12.9,2.11-13.97ZM163.67,410.19c-26.16,22.78-45.96-12.55-76.38-.26-2,.81-9.61,5.07-9.99,6.68-.9,3.74,7.29,22.72,6.78,28.51,4.87.01,7.63-3.91,12.48-4.96,21.66-4.71,36.92,19.74,64.68,7.39,16.28-7.24,2.75-24.02,2.44-37.35ZM141.32,411.6l-15.35-4.19c1.36,2.12,7.1,4.63,9.39,5.26,1.27.35,6.25,1.5,5.96-1.07ZM744.79,408.8c-1.63-2.1-9.54,6.8-3.46,9.76,3.23,1.57,4.12-8.91,3.46-9.76ZM317.36,475.84c5.24-2.49,1.32-9.67,3.46-13.99,1.01-2.05,4.55-2.31,6-5.17,1.7-3.36,5.5-15.26,6.9-19.65.81-2.53,5.27-17.56,4.57-18.46-15.13,6.54-19.01,27.9-37.71,23.74.41,2.5-.55,14.83,0,15.38.84.84,11.23-2.69,15.44,4.81,2.38,4.25,1.08,8.63,1.34,13.34ZM838.2,448.08c-.93-1.67-27.67-9.52-31.93-9.95-2.01,12.15,11.57,17.26,21.66,16.84,3.58-.15,13.16-1.73,10.27-6.9Z" fill="#fff"/><path d="M274.04,144.78c25.65-1.67,47.26.39,67.76,16.76.66-18.09,5.45-7.31,17.46-13.97,36.91,2.85,76.13-7.46,108.96,11.18,4.87.9,4.92,2.39,6.3,5.6,3.95-.09,3.65-4.02,3.48-7-2.85-18.74,103.52-5.39,127.12-9.79,29.32-4.88,8.1,27.95,23.75,9.79,19.28-10.89,44.97-14.73,67.05-9.78,27.88,4.78,68.06-14.68,61.46,29.34-.52,4.59-3.92,50.69,2.8,32.84-5.55-48.23,15.21-27.43,18.16-56.59,24.72-7.18,68.77-4.88,99.17-2.8,11.17,34.99,22.6,71.49,32.33,105.98,16.3-.04,16.16,23.42,16.57,36.51-3.74,11.01-22.23,26.44-30.23,34.66-52.24,7.51-105.49,2.09-159.09,3.11-19.34-1.12-43.58,4.8-60.02-5.55-22.75,11.89-53.08,6.73-72.67-9.97-2.94,0-14.43,16.09-19.46,15.54-38.58-7.01-92.25,12.92-125.1-6.35.6-27.13,1.39-22.47-17.14-7.37-24.34,12.88-126.32,33.79-120.44-10.08-26.41,30.91-70.77,32.49-105.79,16.66l-19.93-18.05c-29.75,39.97-90.72,20.82-133.8,24.82-17.7-11.95-6.83-41.54,4.51-54.97,2.4-16.83-1.65-38.33.14-55.69-19.53-1.85-10.75-31.25-9.84-44.09,16.68-.28,9.88-22.9,20.96-25.15,43.22-2.85,110.27-17.88,139,19.62,14.51-17.57,35.02-23.53,56.57-25.2ZM263.95,150.75c-73.57,8.36-78.38,120.38-13.35,138.3,109.07,37.38,128.66-155,13.35-138.3ZM702.19,288.66c7.98,2.48,28.89-1.85,38.41,0,2.8-6.52-7.3-55.84,6.98-48.89,0,0,0-19.56,0-19.56h-62.16c-11.59,33.68,12.13,9.05,10.44,27.14-2.01,11.86-19.54,13.51-28.86,9.44-43.45-19.35,4.13-109.63,31.61-52.53-6.72,12.45,31.65,3.68,35.01,6.17-1.24-1.6,2.72-57.84-2.1-57.27-45.67-6.84-20.73,27.02-35.53,9.01-119.45-67.91-117.92,189.54-.78,115.34,2.74,1.68,4.67,10.43,6.97,11.15ZM688.93,153.14c1.65-1.98,10.35,8.5,11.16,3.49.53-3.29-9.71-6.92-11.16-3.49ZM353.66,183.89c-14.5,1.55-9.23-5.16-11.45-12.99-.88-8.41-49.52-28.75-18.55-9.39,83.25,82.08-52.82,199.01-114.58,97.82-4.73,24.18-25.55,30.43-46.1,34.91-2.45-2.63-91.96,5.94-88.66-4.92.43-8.09-5.37-33.6,9.75-28.59,2.74-2.63-2.17-66.82.07-76.04-10.49-1.62-10.66-4.73-9.87-14.77-2.9,2.67-12.75,10.48-13.67,13.56.55,8.88-5.65,35.81,10.89,29.74,0,0,0,69.15,0,69.15-13.45,9.82-11.74,24.07-11.17,39.12.15,5.69,90.82.29,92.89,2.1,18.12.84,33.75-18.48,46.09-26.58,29.48,47,100.58,35.63,130.61-5.56,1.41,2.88-4.34,35.38,4.82,32.2,53.45,7.34,109.28-2.07,142.95-46.46,1.77-11.28-3.1-20.8,12.88-17.86,0,0,0-75.43,0-75.43-9.98,1.68-14.4-3.96-11.16-12.56-14.03-1.11-24.44-17.84-40.51-16.75.76,2.08,5.31,3.48,7.41,4.44,102.2,79.87-9.5,160.39-103.8,133.12,1.9-7.93-7.07-39.67,11.17-32.81,0,0,0-75.44,0-75.44ZM603.71,153.16v37.72c7.03-9.84,28.86-43.48,0-37.72ZM750.38,216.02c-4.55-7.04,11.67-74.66-12.57-62.86-1.75,2.13,3.51,61.19-2.1,61.45-41.72-2.59-29.63,11.55-50.47-22.16-48.81-17.3-32.32,94.89,6.46,52.9-20.75,2.51-4.43-15.92-20.93-1.41-.76-7.43-12.07-34.95,8.34-13.97-12.1-26.49,63.3-9.37,71.26-13.97ZM902.65,259.33c-1.86-6.27-19.36-112.34-41.9-106.17,0,0,31.75,103.03,31.75,103.03,1.68,4.34,6.25,3.11,10.15,3.13ZM164.38,154.56h-85.91c2.25,11.38-7.48,27.27,11.17,23.75,0,0,0,86.61,0,86.61-18.8-3.44-8.86,12.28-11.18,23.75,14.77-1.29,94.01,3.54,106.17-4.89,28.11-12.27,25.71-59.35-5.58-66.37,31.2-16.3,20.9-60.67-14.68-62.84ZM201.39,225.8c-4.11-31.54,31.35-65.04-19.54-71.23,46.99,30.64-4.84,56.7,19.54,71.23ZM346.68,288.66c79.97,17.97,184.27-35.71,108.26-120.15-20.84-20.36-82.57-12.72-108.26-13.95,0,0,0,23.75,0,23.75,23.7-14.27,7.93,79.98,12.59,85.22-18.68-4.88-11.23,15.04-12.59,25.13ZM599.52,154.56h-115.94v25.14c23.06-14.75,6.37,79.03,11.18,83.82,0,.56-11.18-.56-11.18,0v25.14h115.94c-4.01-37.02,16.11-46.7-31.43-43.3-6.03,27.82,2.11,15.75-32.83,18.16,0,0,0-32.13,0-32.13,28.21-3.42,40,13.45,36.32-25.14-29.8-3.12-39.77,13.16-36.31-26.54,34.8,2.28,26.78-9.08,32.82,16.76,46.85,3.62,27.8-6.05,31.43-41.91ZM856.55,154.56h-74.04v23.75c2.24.52,7.75-1.74,6.97,2.05l-25.26,83.02c-1.19,1.04-13.83-1.43-13.83,2.24v23.05h61.46c6.8-48.03-27.02-7.69-10.29-37.53,9.28,1.26,46.92-8.8,42.42,12.37-26.25-3.33-15.92,6.93-18.16,25.15h78.23v-23.05c-21.85,9-40.75-100.58-47.49-111.05ZM751.78,220.21c-1.76,9.5,5.46,23.76-7.07,26.01-4.67,10.45,7.5,40.08-4.8,48.03-10.43-.12-42.67,5.32-46.07-8.24-28,21.9-77.53,4.02-87.35-29.48-6.77-.2-.91,30.54-2.78,36.32,0,0-120.85,1.42-120.85,1.42-5.77.16-4.28-13.92-5.57-14-.49,3.28-11.87,12.36-11.87,13.28,2.2,1.64-2.75,30.39,2.1,30.03,22.14-2.83,126.28,10.85,136.89-16.81,21.19,19.88,52.08,25.58,76.78,8.39.48,15.18,35.2,7.43,44.73,8.4,5.21-2.01,6.9-7.52,8.47.12,10.67-1.87,70.57,6.12,74.66-9.87-10.45,20.2,75.41,5.55,80.31,9.75,2.27-.44,30.48-27.94,31.17-30.29-.94-33.46-17.1-45.71-12.28-1.11-.2,5.7-81.03.29-83.12,2.1-4.63,0-4.35-29.72-2.11-33.89,2.57-4.78,13.91,2.15,13.98-5.23h-33.53c-.38,7.62,11.6.17,13.78,6.48.83,2.39.48,28.2-.51,29.84-.75,4.34-69.13,4.33-70.54.7,0,0,0-30.73,0-30.73,0-3.83,12.28-.64,14.11-2.96,5.5-19.64,27.85-69.9,16.6-87.13-14.75,6.66-13.93,26.87-12.38,39.65,9.1,3.62,3.95,8.43,2.61,16.22-2.98-8.55-5.36-7.32-15.35-6.98ZM561.8,183.89c-17.64.58-25.04-6.08-22.35,18.16,35.52,1.5,38.6-10.38,36.31,31.43.43,4.09-34.68,1.33-36.32,2.1,0,0,0,23.75,0,23.75,20.73-.61,21.62,5.55,23.65-17.55,46.28-1.03,34.13,4.05,37.8-41.12-14.18-2.47-45.53,9.54-39.11-16.76Z" fill="#fff"/><path d="M897.06,350.82c1.12-3.6,12.88-3.13,13.97,2.79,1.02,5.55.89,43.33-.3,48.6-1.43,6.32-15.09,14.38-15.09,18.44,19.24,11.4,23.54,35.64,12.86,54.76-6.63,11.87-40.6,44.03-53.38,48.6-15.41,5.51-30.18,5.84-45.73,1.09-9.25-2.83-16.78-12.13-21.3-1.06l-122.24.72c-5.54-1.11-1.85-11.91-9.03-.7l-266.21.75c-6.5,1.62-4.13-8.49-5.53-8.46-3.36-.58-7.4,8.4-8.37,8.4h-69.15v-25.14c-2.44-.61-2.79,1.01-4.2,2.09-8.48,6.49-14.57,16.51-23.04,23.06h-78.92v-31.43c0-.96,11.95-11.72,13.96-13.27.56,3.6-1.74,12.44,2.3,13.77l77.8-.03c7.61-2.55.2-24.33,2.32-30.51,3.74.52,13.98-2.16,13.98,3.5v21.65c4.69.46,4.84-5.54,8.37-6.98-.6,1.78.78,12.57,1.41,12.57h69.15c.15,0,2.1-1.95,2.1-2.1v-30.73c0-3.43-9.75-4.14-12.58-3.5v-4.19h34.93v4.18c-2.03-.54-15.37.49-15.37,1.4v32.83c0,.15,1.95,2.1,2.1,2.1h268.2c4.68,0,4.8-30.61,1.75-33.19-1.78-1.51-8.95-1.37-9.37-1.8-2.76-2.83.77-22.01,8.99-22.3l13.31,21.65c.09,1.71-6.88,1.55-8.1,2.41-2.82,1.98-3.04,33.24,1.79,33.24h122.93c2.6,0,1.35-8.63,4.19-9.75,21.84,19.33,66.45,16.4,84.99-5.77,15.17-18.14,12.92-46.13-6.18-60.49l-25.02-13.39h35.62c.15,0,2.1-1.95,2.1-2.1v-51.69Z" fill="#0007ff"/><path d="M667.96,350.12v25.14c0,.59-11.18-1.3-11.18,2.1v30.03c2.78-.03,5.53-2.56,7.65-4.23,3.55-2.8,27.92-24.05,28.66-25.82,1.65-3.93-10.97-1.4-12.56-2.08v-25.14h65.65v25.14c0,.56-7.83-.56-11.12.75-7.18,2.86-18.37,18.51-26.69,22.2l-1.34,4.19,37.71,58.82c1.7,3.48,12.62.79,12.62,4.14v24.45l-76.83-1.4v-23.05c0-4.77,14.03,2.55,12.53-2.74-.84-2.97-19.65-32.87-21.61-32.85-2.97,4.95-13.68,9.66-14.63,14.68-.39,2.07-.35,17.84.14,18.64,1.47,2.37,11-1.27,11,2.28v22.35c0,.58-2.19,2.38-3.36,2.02l-57.39.07c-3.33-2.04-.72-2.98-.72-3.49v-23.05c2.13.81,9.78,2.57,9.78-.7v-87.31c0-.5-8.61,1.1-9.93-.84l.15-24.31h61.46Z" fill="red"/><path d="M800.67,439.52c.47.31,2,7.42,4.18,10.49,10.05,14.12,42.87,11.46,38.94-2.51-1.78-6.33-41.29-15.46-50.14-19.81-13.96-6.87-25.66-18.59-26.56-34.91-2.59-47.15,63.12-60.47,89.44-27.29,1.87-3.01.52-15.36,3.51-15.36h30.73c4.07,0,.77,9.09.83,10.63.49,12.05.6,18.55-.19,30.64-.14,2.15,2.71,9.01-.63,9.01h-34.22c2.26-16.43-21.15-29.62-34.22-20.95-12.37,8.2-.95,17.3,8.12,21.22,20.92,9.04,62.05,14.73,65.22,43.73,5.53,50.5-66.06,61.48-94.3,30.05-1.25,1.36-1.38,13.96-2.09,13.96h-34.92v-48.89c5.36,1.09,34.15-1.45,36.32,0Z" fill="red"/><path d="M434.68,350.12l33.76,110.82c1.22,4.62,15.13.36,15.13,4.42v23.05h-76.13c-.43,0-1.99,1.92-3.49,1.4v-26.54h18.16c.69-.66-2.83-12.46-4.13-13.33-2.25-1.51-39.72-1.15-41.29.73-.6.73-3.95,12.16-3.46,12.59h15.36v25.15h-62.86v-25.14c0-.69,12.71.82,13.83-.14l24.93-83.33.35-4.53c-1.14-.27-6.99.34-6.99,0v-25.14h76.83ZM384.39,426.95h24.45c.43,0,2.48-2.08,1.89-3.21-3.56-4.35-9.7-38.29-11.67-38.71-3.89-.83-2.71-.2-3.5,2.12-4.38,12.91-7.51,26.66-11.16,39.8Z" fill="red"/><path d="M322.93,350.12v51.69h-29.33v-25.14h-16.76v86.61h16.76v25.14h-74.04v-25.14h16.76v-86.61h-18.16v25.14h-29.33v-49.59c0-.15,1.95-2.1,2.1-2.1h132.01Z" fill="red"/><path d="M550.62,350.12v26.54c0,.56-11.18-.56-11.18,0v86.61h26.54v-25.14h33.53v50.29l-108.28,1.44c-1.17.16-3.48-1.44-3.48-2.14v-22.35c0-3.42,10.93-1.09,11.2-2.89l-.02-85.82c-2.16.12-11.18.63-11.18-2.09v-24.45h62.86Z" fill="red"/><path d="M222.35,380.85h8.38v76.83h-12.57v-32.13c-5.19-.49-9.3,9.97-12.11,10.94-3.13,1.08-17.93,1-18.62,1.64-.5.47,1.04,4.14.68,5.76-.96,4.43-36.25,37.74-42.18,40.04-24.44,9.48-32.75-4.27-51.72-7.76-2.94-.54-10.36.2-11.37-.51-.66-.47-1-4.26-1.89-5.77-2.85-4.85-7.13-11.66-9.16-15.94-5.85-12.32-8.96-14.67,3.2-24.2,2.77,3.54,3.69,18.51,5.1,20.7,3.08,4.78,11.05-3.36,13.85-4.53,14.93-6.25,26.25,6.61,40.04,8.63,12.73,1.87,44.2-1.18,40.82-19.84-.74-4.1-5.2-14.19-5.36-18.17-.08-1.98,1.34-4.49,1.29-7.01-.42-18.18-3.69-31.96,13.9-42.66v37.02c0,.15,1.95,2.1,2.1,2.1h33.53c.15,0,2.1-1.95,2.1-2.1v-23.05Z" fill="#0007ff"/><path d="M341.09,378.06c1.09,1.44,5.35-3.66,6.05-4.36,1.63-1.63,2.47-4,4.42-5.39,3.58,5.05-1.09,12.16,7.66,13.22l-23.74,77.55c-2.65-.74-2.56-1.88-2.23-4.21.9-6.27,14.55-40.05,11.82-43.09-.24-.27-5.48-1.86-6.78-2.37l-28.25,27.71c-2.08,2.12-15.04.26-15.04,1.02v19.56h-13.97v-76.83h8.38v23.75c1.37-.45,3.03,1.4,3.49,1.4h32.13c.15,0,2.1-1.95,2.1-2.1v-53.08c0-3.53,13.97-2.67,13.97,1.4,0,3.72-.78,24.81,0,25.84Z" fill="#0007ff"/><path d="M163.67,410.19c.31,13.33,13.83,30.12-2.44,37.35-27.76,12.34-43.02-12.1-64.68-7.39-4.84,1.05-7.6,4.98-12.48,4.96.51-5.78-7.67-24.76-6.78-28.51.39-1.61,7.99-5.87,9.99-6.68,30.42-12.29,50.22,23.05,76.38.26Z" fill="red"/><path d="M494.75,457.68c-7.57,1.66-14.98.96-22.52-.8l-33.31-104.72c-.43-2.82.11-1.78,2.02-2.03,2.77-.37,9.53-.65,11.23,1.37l17.44,54.5v-24.45c0-2.67,11.09-11.91,13.28-14.66,2.21,2.97-.73,9.76.89,12.37,1.41,2.26,10.98,1.04,10.98,1.6v76.83ZM480.78,411.59l-9.8.72c2.33,8.23,4.68,16.62,7.43,24.71.5,1.49.3,4.22,2.37,3.9v-29.33Z" fill="#0007ff"/><path d="M750.38,350.82c1.03-3.3,12.17-2.79,14.08.23,1.15,1.82,1.16,4.56,1.34,6.69,2.3,26.72-10.23,31.04-26.67,47.53-2.96,2.97-3.04,5.85-8.34,7.04,8.53,12.02,15.09,25.52,22.89,37.89,1.54,2.45,7.78,5.05,6.47,10.27l-10.89-.28-36.62-57.71,1.32-2.85c7.19-3.54,17.4-17.57,24.62-18.7,2.42-.38,11.8.85,11.8-2.17,0-5.77-1.18-24.15,0-27.94Z" fill="#0007ff"/><path d="M554.82,348.73c2.61-.07,13.36-.55,14.03,2.33.6,2.57.37,27.79-.34,30.22-1.26,4.3-9.25,7.03-9.6,10.02-2.35,19.9,1.97,44.58.12,65.01l2.77-1.41v4.19c-5.97-2.64-10.68.11-16.75,0v-78.23c0-.49,9.78-.24,9.78-1.4v-30.73Z" fill="#0007ff"/><path d="M605.1,437.43c-.8-4.73-6.61-3.99-7.05-5.81-.79-3.19.94-19.23.08-20.04-.72-.68-9.2,2.04-10.9-3.77-.99-3.37-.74-23.49.34-27.03,1.37-4.45,10.11-9.26,12.65-13.89,1.6,3.53-.44,9.48,2.75,12.6,2.73,2.67,8.52.77,9.13,1.35,2.76,2.62-2.12,66.9,0,76.14-.31,3.97-3.64,3.71-6.99,3.49-.82-7.06,1.13-16.33,0-23.05Z" fill="#0007ff"/><path d="M762.26,435.33c-3.47,1.07-1.73,10.78-2.11,13.97-17.26-14.25-14.32-46.64,2.79-60.07-1.31,14.47,5.91,26.76,16.9,35.5l16.64,10.6c-8.58,1.65-27.01-2.23-34.22,0Z" fill="#0007ff"/><path d="M852.35,401.8c-1.78,1.77-29.46-8.71-30.57-12.07-1.95-5.92,4.36-7.35,8.9-7.58,12.39-.62,22.02,6.82,21.67,19.65Z" fill="#0007ff"/><path d="M838.2,448.08c2.89,5.17-6.69,6.75-10.27,6.9-10.09.41-23.67-4.69-21.66-16.84,4.26.43,31,8.28,31.93,9.95Z" fill="#0007ff"/><path d="M676.35,348.73v30.73c0,.59,6.58-1.79,5.57,2.08-2.27,1.1-18.5,17.48-19.53,16.08.41-2.63-.61-16.18,0-16.75.36-.34,9.77-.43,9.77-1.41v-30.73h4.19Z" fill="#0007ff"/><path d="M853.74,355.71l-11.16-8.37c5.98.14,12.67.73,11.16,8.37Z" fill="#0007ff"/><path d="M141.32,411.6c.29,2.57-4.69,1.42-5.96,1.07-2.29-.63-8.03-3.14-9.39-5.26l15.35,4.19Z" fill="#0007ff"/><path d="M353.66,183.89v75.43c-3.49.13-11.18-1.61-11.18,3.49v29.33c0,.15,1.95,2.1,2.1,2.1h71.24c4.66,0,22.54-5.21,27.63-7.29,52.82-21.57,55.45-103.72,2.84-127.94-2.1-.97-6.65-2.36-7.41-4.44,13.91-.09,24.11,10.3,34.99,15.99,1.88.98,5.31.58,5.52.76.41.37-2.7,7.3.34,10.82,2.35,2.72,10.83,1.2,10.83,1.74v75.43c0,.56-10.35-.66-11.11.07-1.58,1.54-.71,15.98-1.77,17.8-.22.37-3.35,1.75-4.63,3-18.54,18.09-30.6,35.71-57.88,41.33-16.8,3.46-63.08,4.15-80.44,2.12-1.41-.17-4.82-.64-4.82-2.17v-30.03c-9.75,7.55-16.93,18.23-27.49,24.9-30.5,19.24-76.58,13.94-100.28-13.79-1.36-1.59-1.73-5.19-2.85-5.54-3.96-1.26-11.22,10.21-13.9,12.66-6.39,5.83-23.77,13.91-32.19,13.91H62.41c-.15,0-2.1-1.95-2.1-2.1v-26.54c0-2.88,11.18-10.15,11.18-12.57v-69.15c0-.53-8.54,1.15-9.94-.81-1.67-2.35-1.95-25.58-.95-28.93.91-3.08,10.77-10.89,13.67-13.56-.79,10.05-.62,13.15,9.87,14.77-2.24,9.22,2.67,73.4-.07,76.03-1.06,1.02-8.66-2.61-9.79,3.48-.65,3.52-.63,21.6.04,25.11.29,1.53,2.41,4.93,3.46,4.93h85.21c.58,0,3.85-2.12,5.9-2.48,9.98-1.76,16.41-1.67,25.41-8.11,9.35-6.69,10.29-14.57,14.79-24.32,5.09,15.65,23.83,30.09,39.52,34.5,88.19,24.78,129.98-72.89,75.05-132.32l-11.9-8.33c7.2.06,28.64,11.38,30.45,17.73,2.23,7.83-3.05,14.54,11.45,12.99Z" fill="#0007ff"/><path d="M751.78,220.21c3.18.5,10.35-1.06,12.67.6,2.41,1.73-.24,6.4,2.68,6.37.35-3.84,3.48-9.52,2.92-13.17-.24-1.56-4.48-.11-5.53-3.05-.68-1.91-.57-25.17.12-27.49.87-2.91,9.54-9.75,12.27-12.16-.78,8.47-.47,9.84,6.98,13.34l-23.58,73.8c-1.83,2.33-14.11-.87-14.11,2.96v30.73c0,.15,1.95,2.1,2.1,2.1h64.26c.39,0,3.81-2.17,4.19-2.8.99-1.64,1.34-27.45.51-29.84-2.18-6.3-14.16,1.14-13.78-6.48h33.53c-.07,7.37-11.41.44-13.98,5.23-2.24,4.17-2.52,33.89,2.11,33.89h81.02c.15,0,2.1-1.95,2.1-2.1v-30.03c2.5-.47,3.48,1.21,4.81,2.88,4.94,6.24,9.79,20.43,7.48,28.27-.69,2.35-28.9,29.85-31.17,30.29l-76.8.03c-4.99-.57-3.34-6.01-3.5-9.78l-10.45,9.79-64.21.08-1.47-4.3c-2.5-.18-3.5,3.52-7,4.18-3.77.71-37.05.85-40.24.08-2-.48-3.08-8.48-4.48-8.48-24.7,17.19-55.59,11.49-76.78-8.39-4.81.56-15.35,16.81-18.16,16.81h-118.74c-.15,0-2.1-1.95-2.1-2.1v-27.94c0-.92,11.38-10.01,11.87-13.28,1.29.08-.2,14.16,5.57,14l120.85-1.42v-25.84c0-1.39-.78-14.3,2.78-10.48.38.41,2.37,7.76,4.22,10.46,14.22,20.83,42.43,33.98,67.58,27.09,3.63-.99,14.68-8.15,15.55-8.08,2.39.19,1.48,6.77,7.23,7.9,5.55,1.09,33.39,1.35,38.84.34,3.32-.61,4.31-3.26,4.79-6.38,1.71-11.07-2.44-32.8,0-41.65.44-1.59,7.07-1.89,7.07-2.26v-23.75Z" fill="#0007ff"/><path d="M702.19,288.66c-2.31-.72-4.24-9.47-6.98-11.15-17.04,19.25-49.01,15.15-67.63.55-37.46-29.36-29.6-102.99,14.51-122.15,16.25-7.06,40.39-6.08,53.92,6.26,1.48,1.35,3.27,7.06,5.48,4.96,2.48-2.36-1.23-13.97,9.09-13.97h20.95c.15,0,2.1,1.95,2.1,2.1v55.18h-34.92c-.31,0,.32-4.62-.09-6.17-6.15-23.01-33.35-23.86-43.77-3.47-8.48,16.59-7.02,47.61,12.17,56,9.32,4.07,26.85,2.42,28.86-9.44,2.11-12.45-10.71-5.76-12.54-7.58-.71-.71-.61-19.56,2.1-19.56h62.16v19.56c0,.45-7.64-1.25-8.27,2.25-.21,1.18,1.28,2.23,1.28,2.63v44c-9.52-1.85-30.44,2.48-38.41,0Z" fill="red"/><path d="M263.95,150.75c59.16-6.72,88.09,38.36,76.23,92.99-9.15,42.15-51.03,55.93-89.58,45.3-65.03-17.92-60.22-129.94,13.35-138.3ZM283.38,182.94c-7.72-6.52-17.01-3.88-22.52,3.83-13.08,18.3-11.73,84.26,18.85,74.71,20.18-6.3,19.26-65.37,3.67-78.54Z" fill="red"/><path d="M164.38,154.56c30.22,3.39,42.98,31.19,25.13,55.86l-10.45,6.98c31.29,7.02,33.69,54.1,5.58,66.37-3.04,1.33-16.16,4.89-18.86,4.89h-87.31v-23.75c0-.56,11.18.56,11.18,0v-86.61c0-.56-11.18.56-11.18,0v-23.75h85.91ZM128.76,209.04c36.03,7.67,34.91-37.67,0-30.73v30.73ZM150.41,229.99c-5.82-1.26-15.32.92-21.65,0v34.92h20.26c.47,0,6.82-4.27,7.71-5.26,7.49-8.32,4.99-27.22-6.31-29.66Z" fill="red"/><path d="M856.55,154.56l32.79,107.6c2.27,3.06,14.7-.39,14.7,3.46v23.05h-78.23c2.24-18.22-8.09-28.48,18.16-25.15-.82-5.65.46-11.8-6.21-12.64-4.18-.52-33.62-.61-36.2.26s-4.26,9.41-5.07,12.37c2.79.22,15.36-1.11,15.36,2.1v23.05h-61.46v-23.05c0-3.67,12.64-1.2,13.83-2.24l25.26-83.02c.78-3.8-4.73-1.53-6.97-2.05v-23.75h74.04ZM832.8,228.59c-.19-4.6-9.69-41.88-11.87-41.88l-13.06,38.67c-.59,1.13,1.46,3.21,1.89,3.21h23.05Z" fill="red"/><path d="M346.68,288.66v-23.05c0-2.92,10.26-2.09,12.58-2.09l-.62-83.91c-1.88-2.69-11.96-.69-11.96-1.31v-23.75h73.34c7.92,0,28.31,8.86,34.92,13.97,45.84,35.41,23.64,120.13-36.32,120.13h-71.94ZM398.36,263.51c42.13,9.38,47.82-63.26,22.26-80.23-3.38-2.25-22.26-8.38-22.26-2.89v83.12Z" fill="red"/><path d="M599.52,154.56v41.91h-31.43c-3.33,0-1.81-13.79-2.09-16.77h-30.74v26.55h36.32v25.14h-36.32v32.13h30.73c.35-3.15-1.32-18.16,2.1-18.16h29.33c.15,0,2.1,1.95,2.1,2.1v41.21h-115.94v-25.14c0-.56,11.18.56,11.18,0v-83.81c0-.56-11.18.56-11.18,0v-25.14h115.94Z" fill="red"/><path d="M750.38,216.02h-67.75c-3.79,0-3.98,10.99-3.51,13.97l-10.47-8.37c-2.11,3.1.49,20.92,2.12,22.34,2.58,2.24,5.41-7.3,8.35-6.98-.28,8.6,5.41,8.76,12.58,8.39-5.7,14.52-26.87,9.82-32.91-2.71-1.44-2.99-4.47-12.87-4.84-16.1-1.79-15.68,11.97-45.26,31.29-34.08,8.68,5.03,7.36,14.89,11.35,22.16h39.11c.15,0,2.1-1.95,2.1-2.1v-59.37c2.33,0,12.57-.82,12.57,2.1v60.77Z" fill="#0007ff"/><path d="M561.8,183.89c.63.63-1.76,16.76,3.49,16.76h35.62c-1.74,13.21-2.61,27.37,0,40.5-6.27.61-34.23-1.86-37.8.62-3.18,2.21.73,17.55-3.4,17.55h-20.26v-23.75h34.22c.15,0,2.1-1.95,2.1-2.1v-29.33c0-.15-1.95-2.1-2.1-2.1h-34.22v-18.16c3.28.58,21.56-.79,22.35,0Z" fill="#0007ff"/><path d="M902.65,259.33c-3.89-.02-8.46,1.2-10.15-3.13l-31.76-103.03c5.09.31,11.59-2.09,13.28,4.16,2.51,12.23,32.81,97.85,28.62,102Z" fill="#0007ff"/><path d="M201.39,225.8c-3.57-4.08-6.93-5.9-11.15-9.1,3.08-4.45,9.09-9.63,10.57-15.95,2.31-9.89,1.67-26.17-4.99-34.32l-13.96-11.86c9.94-.67,29.2,10.55,30.52,20.59.21,1.61-7.52,18.12-8.65,22.92-2.23,9.43-2.84,18-2.33,27.71Z" fill="#0007ff"/><path d="M603.71,153.16c15.32-2.33,15.48,2.93,13.22,16.71l-13.22,21v-37.72Z" fill="#0007ff"/><path d="M688.93,153.14c1.45-3.43,11.69.2,11.16,3.49-.8,5.01-9.51-5.47-11.16-3.49Z" fill="#0007ff"/><path d="M384.39,426.95c3.66-13.15,6.78-26.89,11.16-39.8.79-2.32-.4-2.95,3.5-2.12,1.98.42,8.11,34.36,11.67,38.71.59,1.13-1.46,3.21-1.89,3.21h-24.45ZM403.95,421.36c1.11-1.14-5-19.25-6.28-22.34-1.73,2.71-7.29,21.33-6.3,22.34h12.58Z" fill="#fff"/><path d="M480.78,411.59v29.33c-2.06.31-1.86-2.42-2.37-3.9-2.75-8.09-5.1-16.48-7.43-24.71l9.8-.72Z" fill="#fff"/><path d="M283.38,182.94c15.59,13.18,16.51,72.24-3.67,78.54-30.58,9.55-31.92-56.41-18.85-74.71,5.51-7.71,14.8-10.35,22.52-3.83ZM281.98,188.51c-8.65-9.55-18.15.02-21.24,9.32-4.79,14.42-4.32,31.87-.02,46.17,2.87,9.56,13.47,19.54,21.7,9.04,9.7-12.37,10.16-52.83-.44-64.53Z" fill="#fff"/><path d="M150.41,229.99c11.3,2.44,13.8,21.34,6.31,29.66-.89.99-7.24,5.26-7.71,5.26h-20.26v-34.92c6.33.92,15.83-1.26,21.65,0ZM132.95,260.72c10.61.71,24.43-1.06,23.85-14.64-.58-13.63-13.64-12.27-23.85-11.9v26.54Z" fill="#fff"/><path d="M128.76,209.04v-30.73c34.91-6.94,36.03,38.41,0,30.73ZM132.95,183.89v20.95c8.31.24,16.27,1.04,16.88-9.03.82-13.54-5.5-11.83-16.88-11.92Z" fill="#fff"/><path d="M832.8,228.59h-23.05c-.43,0-2.48-2.08-1.89-3.21l13.06-38.67c2.18,0,11.68,37.28,11.87,41.88ZM827.21,223c1.16-1.19-4.83-18.12-6.28-20.94-1.94,2.46-7.15,20.06-6.3,20.94h12.58Z" fill="#fff"/><path d="M398.36,263.51v-83.12c0-5.49,18.87.64,22.26,2.89,25.57,16.97,19.88,89.6-22.26,80.23ZM403.95,183.89v74.04c19.19,3.14,25.9-17.18,26.61-32.76.8-17.84-4.01-42.42-26.61-41.28Z" fill="#fff"/><path d="M403.95,421.36h-12.58c-.99-1.01,4.56-19.62,6.3-22.34,1.29,3.09,7.39,21.2,6.28,22.34Z" fill="#0007ff"/><path d="M281.98,188.51c10.6,11.7,10.14,52.16.44,64.53-8.23,10.5-18.83.52-21.7-9.04-4.3-14.3-4.77-31.75.02-46.17,3.09-9.3,12.59-18.87,21.24-9.32ZM276.82,252.34c-.05-9.29.45-22.42-6.96-29.33.29,9.35.33,22.02,6.96,29.33Z" fill="#0007ff"/><path d="M132.95,260.72v-26.54c10.21-.36,23.27-1.73,23.85,11.9.58,13.57-13.24,15.35-23.85,14.64Z" fill="#0007ff"/><path d="M132.95,183.89c11.38.09,17.7-1.62,16.88,11.92-.61,10.08-8.58,9.27-16.88,9.03v-20.95Z" fill="#0007ff"/><path d="M827.21,223h-12.58c-.85-.88,4.35-18.48,6.3-20.94,1.45,2.82,7.45,19.75,6.28,20.94Z" fill="#0007ff"/><path d="M403.95,183.89c22.59-1.14,27.41,23.44,26.61,41.28-.7,15.58-7.41,35.89-26.61,32.76v-74.04Z" fill="#0007ff"/><path d="M276.82,252.34c-6.63-7.31-6.66-19.99-6.96-29.33,7.4,6.91,6.91,20.05,6.96,29.33Z" fill="#fff"/></svg>